<svg xmlns="http://www.w3.org/2000/svg" xmlns:xlink="http://www.w3.org/1999/xlink" width="200" zoomAndPan="magnify" viewBox="0 0 150 374.999991" height="500" preserveAspectRatio="xMidYMid meet" version="1.0"><defs><clipPath id="9909a18532"><path d="M 38 1 L 112 1 L 112 118 L 38 118 Z M 38 1 " clip-rule="nonzero"/></clipPath><clipPath id="3220042d37"><path d="M 323.40625 217.9375 L 86.878906 454.464844 L -147.527344 220.0625 L 89 -16.464844 Z M 323.40625 217.9375 " clip-rule="nonzero"/></clipPath><clipPath id="287e6d3f3d"><path d="M 315.449219 209.984375 L 78.921875 446.511719 L -147.527344 220.0625 L 89 -16.464844 Z M 315.449219 209.984375 " clip-rule="nonzero"/></clipPath><clipPath id="40ac4e4f77"><path d="M 323.402344 217.9375 L 86.875 454.464844 L -147.53125 220.058594 L 88.996094 -16.46875 Z M 323.402344 217.9375 " clip-rule="nonzero"/></clipPath><clipPath id="0c8acfafd0"><path d="M 32 132 L 141 132 L 141 375 L 32 375 Z M 32 132 " clip-rule="nonzero"/></clipPath><clipPath id="8d6d566e05"><path d="M 323.40625 217.9375 L 86.878906 454.464844 L -147.527344 220.0625 L 89 -16.464844 Z M 323.40625 217.9375 " clip-rule="nonzero"/></clipPath><clipPath id="12aacb8bc4"><path d="M 315.449219 209.984375 L 78.921875 446.511719 L -147.527344 220.0625 L 89 -16.464844 Z M 315.449219 209.984375 " clip-rule="nonzero"/></clipPath><clipPath id="1265876d69"><path d="M 323.402344 217.9375 L 86.875 454.464844 L -147.53125 220.058594 L 88.996094 -16.46875 Z M 323.402344 217.9375 " clip-rule="nonzero"/></clipPath></defs><g clip-path="url(#9909a18532)"><g clip-path="url(#3220042d37)"><g clip-path="url(#287e6d3f3d)"><g clip-path="url(#40ac4e4f77)"><path fill="#000000" d="M 111.484375 100.925781 C 111.484375 100.183594 111.367188 99.445312 111.144531 98.746094 L 82.046875 6.265625 C 81.09375 3.238281 78.292969 1.179688 75.109375 1.171875 C 73.144531 1.179688 71.300781 1.96875 69.96875 3.300781 C 69.164062 4.109375 68.519531 5.113281 68.167969 6.273438 L 39.105469 98.742188 C 38.875 99.429688 38.777344 100.171875 38.769531 100.921875 L 38.769531 117.917969 L 111.476562 117.914062 Z M 111.484375 100.925781 " fill-opacity="1" fill-rule="nonzero"/></g></g></g></g><g clip-path="url(#0c8acfafd0)"><g clip-path="url(#8d6d566e05)"><g clip-path="url(#12aacb8bc4)"><g clip-path="url(#1265876d69)"><path fill="#000000" d="M 75.15625 422.523438 C 94.589844 422.542969 111.539062 401.859375 111.519531 378.277344 L 111.527344 350.625 L 133.347656 350.628906 C 135.269531 350.628906 137.113281 349.871094 138.480469 348.503906 C 139.84375 347.140625 140.617188 345.296875 140.601562 343.371094 L 140.59375 219.726562 C 140.59375 215.710938 137.335938 212.453125 133.320312 212.453125 C 131.3125 212.453125 129.484375 213.257812 128.167969 214.574219 C 126.851562 215.890625 126.046875 217.71875 126.054688 219.71875 L 126.070312 336.0625 L 111.507812 336.0625 L 111.496094 132.429688 L 38.785156 132.433594 L 38.777344 336.058594 C 34.761719 336.058594 32.457031 338.359375 32.449219 342.382812 C 32.441406 346.40625 38.660156 346.6875 40.667969 348.695312 L 40.6875 348.710938 L 39.75 377.3125 C 39.742188 401.738281 55.082031 422.507812 75.15625 422.523438 Z M 75.15625 422.523438 " fill-opacity="1" fill-rule="nonzero"/></g></g></g></g></svg>